<svg xmlns="http://www.w3.org/2000/svg" xmlns:xlink="http://www.w3.org/1999/xlink" width="500" zoomAndPan="magnify" viewBox="0 0 375 374.999991" height="500" preserveAspectRatio="xMidYMid meet" version="1.0"><defs><g/><clipPath id="c215446ae0"><path d="M 96 133 L 304 133 L 304 306 L 96 306 Z M 96 133 " clip-rule="nonzero"/></clipPath><clipPath id="5f8f470204"><path d="M 352.621094 236.578125 L 160.375 357.757812 L 95.183594 254.339844 L 287.429688 133.160156 Z M 352.621094 236.578125 " clip-rule="nonzero"/></clipPath><clipPath id="34f38cb76c"><path d="M 352.621094 236.578125 L 160.375 357.757812 L 95.183594 254.339844 L 287.429688 133.160156 Z M 352.621094 236.578125 " clip-rule="nonzero"/></clipPath><clipPath id="0c74a6f57b"><path d="M 113 143.167969 L 262.5 143.167969 L 262.5 257 L 113 257 Z M 113 143.167969 " clip-rule="nonzero"/></clipPath><clipPath id="123db4f809"><path d="M 251.835938 92.136719 L 266.835938 92.136719 L 266.835938 107.886719 L 251.835938 107.886719 Z M 251.835938 92.136719 " clip-rule="nonzero"/></clipPath></defs><g clip-path="url(#c215446ae0)"><g clip-path="url(#5f8f470204)"><g clip-path="url(#34f38cb76c)"><path fill="#145854" d="M 166.945312 302.820312 C 168.726562 303.203125 170.519531 303.546875 172.316406 303.84375 C 174.113281 304.144531 175.917969 304.398438 177.726562 304.609375 C 179.539062 304.820312 181.351562 304.988281 183.171875 305.109375 C 184.988281 305.234375 186.808594 305.3125 188.632812 305.347656 C 190.453125 305.382812 192.273438 305.371094 194.097656 305.320312 C 195.917969 305.265625 197.738281 305.167969 199.554688 305.027344 C 201.371094 304.886719 203.183594 304.699219 204.992188 304.46875 C 206.800781 304.238281 208.601562 303.96875 210.394531 303.648438 C 212.191406 303.332031 213.976562 302.972656 215.753906 302.570312 C 217.53125 302.167969 219.296875 301.71875 221.054688 301.230469 C 222.808594 300.742188 224.550781 300.210938 226.28125 299.636719 C 228.011719 299.0625 229.726562 298.449219 231.425781 297.792969 C 233.125 297.136719 234.808594 296.4375 236.476562 295.699219 C 238.140625 294.960938 239.789062 294.183594 241.417969 293.367188 C 243.046875 292.546875 244.65625 291.691406 246.242188 290.792969 C 247.828125 289.898438 249.394531 288.964844 250.933594 287.992188 C 252.476562 287.019531 253.992188 286.011719 255.488281 284.96875 C 256.980469 283.921875 258.445312 282.839844 259.886719 281.726562 C 261.328125 280.609375 262.738281 279.457031 264.125 278.273438 C 265.507812 277.089844 266.863281 275.871094 268.191406 274.621094 C 269.515625 273.367188 270.808594 272.085938 272.074219 270.773438 C 273.335938 269.460938 274.566406 268.117188 275.765625 266.746094 C 276.964844 265.371094 278.128906 263.96875 279.257812 262.539062 C 280.390625 261.109375 281.484375 259.65625 282.546875 258.171875 C 283.605469 256.691406 284.628906 255.183594 285.617188 253.652344 C 286.601562 252.117188 287.550781 250.5625 288.464844 248.984375 C 289.375 247.40625 290.246094 245.808594 291.082031 244.1875 C 291.914062 242.566406 292.710938 240.925781 293.464844 239.269531 C 294.21875 237.609375 294.933594 235.933594 295.605469 234.238281 C 296.277344 232.546875 296.910156 230.835938 297.5 229.113281 C 298.089844 227.390625 298.640625 225.652344 299.144531 223.902344 C 299.652344 222.148438 300.117188 220.386719 300.535156 218.613281 C 307.46875 189.710938 302.984375 159.816406 287.917969 134.449219 C 287.761719 134.21875 287.546875 134.074219 287.277344 134.011719 C 287.003906 133.953125 286.746094 133.992188 286.507812 134.136719 C 286.269531 134.277344 286.109375 134.484375 286.035156 134.75 C 285.957031 135.019531 285.980469 135.277344 286.109375 135.523438 C 316.5625 186.804688 300.273438 254.40625 249.8125 286.210938 C 199.347656 318.019531 131.335938 303.558594 98.207031 253.964844 C 98.039062 253.742188 97.816406 253.609375 97.539062 253.5625 C 97.265625 253.515625 97.011719 253.570312 96.78125 253.726562 C 96.546875 253.878906 96.402344 254.09375 96.335938 254.367188 C 96.273438 254.636719 96.3125 254.894531 96.453125 255.132812 C 112.847656 279.671875 137.882812 296.605469 166.945312 302.820312 Z M 166.945312 302.820312 " fill-opacity="1" fill-rule="evenodd"/></g></g></g><g clip-path="url(#0c74a6f57b)"><path fill="#b91847" d="M 260 238.800781 C 260 238.792969 260.003906 238.792969 260 238.800781 C 260 238.792969 260 238.792969 260 238.789062 L 258.4375 228.957031 L 245.714844 148.851562 C 245.664062 148.511719 245.46875 148.207031 245.195312 148 C 244.917969 147.796875 244.578125 147.714844 244.222656 147.765625 L 222.351562 151.242188 C 221.636719 151.355469 221.15625 152.023438 221.265625 152.734375 L 224.25 171.519531 L 202.226562 171.519531 L 202.226562 144.320312 C 202.226562 143.597656 201.640625 143.015625 200.921875 143.015625 L 164.617188 143.015625 C 163.894531 143.015625 163.3125 143.597656 163.3125 144.320312 L 163.3125 159.535156 L 128.726562 154.453125 C 128.027344 154.371094 127.347656 154.851562 127.246094 155.566406 L 125.070312 170.394531 C 125.070312 170.402344 125.0625 170.402344 125.0625 170.40625 C 125.0625 170.410156 125.070312 170.417969 125.070312 170.421875 L 123.660156 179.996094 C 123.660156 179.996094 123.65625 180 123.65625 180 C 123.65625 180 123.65625 180.003906 123.65625 180.003906 L 117.019531 225.199219 C 117.019531 225.199219 117.019531 225.199219 117.019531 225.207031 L 115.785156 233.605469 C 115.785156 233.609375 115.777344 233.609375 115.777344 233.609375 C 115.777344 233.613281 115.785156 233.613281 115.777344 233.621094 L 113.4375 249.554688 C 113.382812 249.894531 113.472656 250.246094 113.683594 250.527344 C 113.886719 250.800781 114.199219 250.984375 114.539062 251.039062 L 150.613281 256.335938 C 150.675781 256.34375 150.738281 256.347656 150.800781 256.347656 C 151.4375 256.347656 151.996094 255.882812 152.089844 255.230469 L 154.363281 239.75 C 154.363281 239.742188 154.371094 239.738281 154.375 239.734375 C 154.375 239.726562 154.371094 239.722656 154.371094 239.71875 L 155.644531 231.054688 C 155.644531 231.046875 155.648438 231.046875 155.648438 231.042969 C 155.648438 231.039062 155.648438 231.039062 155.648438 231.03125 L 162.226562 186.242188 C 162.226562 186.238281 162.230469 186.238281 162.230469 186.234375 C 162.230469 186.226562 162.226562 186.226562 162.230469 186.222656 L 163.3125 178.886719 L 163.3125 254.796875 C 163.3125 255.519531 163.894531 256.101562 164.617188 256.101562 L 225.585938 256.101562 C 226.304688 256.101562 226.890625 255.519531 226.890625 254.796875 L 226.890625 188.121094 L 234 232.910156 C 234 232.910156 234 232.910156 234 232.914062 C 234 232.914062 234 232.914062 234 232.921875 L 237.628906 255.777344 C 237.6875 256.117188 237.875 256.429688 238.15625 256.628906 C 238.382812 256.792969 238.648438 256.878906 238.917969 256.878906 C 238.988281 256.878906 239.054688 256.875 239.121094 256.863281 L 260.996094 253.390625 C 261.710938 253.273438 262.1875 252.609375 262.078125 251.898438 Z M 159.847656 184.53125 L 126.421875 179.128906 L 127.453125 172.101562 L 160.910156 177.308594 Z M 151.988281 238.03125 L 118.542969 232.726562 L 119.40625 226.878906 L 152.882812 231.941406 Z M 153.265625 229.363281 L 119.785156 224.304688 L 126.042969 181.707031 L 159.472656 187.109375 Z M 202.222656 196.554688 L 224.277344 196.554688 L 224.277344 204.09375 L 202.222656 204.09375 Z M 199.613281 172.828125 L 199.613281 222.035156 L 165.914062 222.035156 L 165.914062 163.546875 L 199.613281 163.546875 Z M 199.613281 160.9375 L 165.914062 160.9375 L 165.914062 157.046875 L 199.613281 157.046875 Z M 165.914062 224.640625 L 199.613281 224.640625 L 199.613281 233.769531 L 165.914062 233.769531 Z M 202.222656 206.703125 L 224.277344 206.703125 L 224.277344 243.832031 L 202.222656 243.832031 Z M 224.277344 174.132812 L 224.277344 193.949219 L 202.222656 193.949219 L 202.222656 174.132812 Z M 199.613281 145.625 L 199.613281 154.4375 L 165.914062 154.4375 L 165.914062 145.625 Z M 129.632812 157.230469 L 163.132812 162.148438 L 161.289062 174.726562 L 127.828125 169.519531 Z M 149.707031 253.5625 L 116.207031 248.644531 L 118.164062 235.308594 L 151.605469 240.613281 Z M 165.914062 236.378906 L 199.613281 236.378906 L 199.613281 253.496094 L 165.914062 253.496094 Z M 202.222656 253.496094 L 202.222656 246.4375 L 224.277344 246.4375 L 224.277344 253.496094 Z M 236.78125 233.78125 L 256.066406 230.65625 L 257.226562 237.976562 L 238.003906 241.515625 Z M 228.328125 180.566406 L 247.574219 177.15625 L 255.65625 228.085938 L 236.371094 231.210938 Z M 226.910156 171.648438 L 246.144531 168.179688 L 247.160156 174.578125 L 227.917969 177.992188 Z M 243.34375 150.550781 L 245.730469 165.601562 L 226.5 169.070312 L 224.042969 153.613281 Z M 240.003906 254.078125 L 238.417969 244.097656 L 257.640625 240.558594 L 259.300781 251.015625 Z M 240.003906 254.078125 " fill-opacity="1" fill-rule="nonzero"/></g><g clip-path="url(#123db4f809)"><path fill="#000000" d="M 262.160156 98.371094 C 262.105469 99.460938 261.632812 100.523438 260.757812 101.3125 C 259.878906 102.101562 258.773438 102.460938 257.679688 102.40625 C 256.585938 102.347656 255.519531 101.882812 254.726562 101.007812 C 253.933594 100.136719 253.578125 99.035156 253.628906 97.941406 C 253.6875 96.855469 254.15625 95.792969 255.03125 95.003906 C 255.910156 94.214844 257.015625 93.855469 258.109375 93.910156 C 259.203125 93.964844 260.269531 94.433594 261.0625 95.304688 C 261.855469 96.179688 262.210938 97.28125 262.160156 98.371094 Z M 266.457031 106.117188 L 262.582031 101.84375 C 263.367188 100.851562 263.800781 99.664062 263.863281 98.460938 C 263.941406 96.941406 263.433594 95.382812 262.328125 94.164062 C 261.226562 92.949219 259.71875 92.289062 258.195312 92.210938 C 256.671875 92.132812 255.109375 92.640625 253.886719 93.742188 C 252.664062 94.84375 252 96.339844 251.925781 97.855469 C 251.847656 99.375 252.355469 100.933594 253.460938 102.148438 C 254.566406 103.367188 256.070312 104.027344 257.59375 104.101562 C 258.804688 104.164062 260.035156 103.851562 261.105469 103.171875 L 264.980469 107.445312 C 265.351562 107.851562 265.980469 107.882812 266.386719 107.515625 C 266.796875 107.148438 266.828125 106.523438 266.457031 106.117188 " fill-opacity="1" fill-rule="nonzero"/></g><g fill="#145854" fill-opacity="1"><g transform="translate(85.932312, 194.682715)"><g><path d="M 0.078125 -1.984375 L -18.625 -2.671875 L -18.390625 -9.25 C -18.335938 -10.570312 -18.085938 -11.65625 -17.640625 -12.5 C -17.191406 -13.34375 -16.597656 -13.960938 -15.859375 -14.359375 C -15.117188 -14.765625 -14.304688 -14.953125 -13.421875 -14.921875 C -12.203125 -14.878906 -11.257812 -14.519531 -10.59375 -13.84375 C -9.925781 -13.164062 -9.476562 -12.367188 -9.25 -11.453125 C -9.09375 -12.128906 -8.789062 -12.742188 -8.34375 -13.296875 C -7.894531 -13.859375 -7.34375 -14.289062 -6.6875 -14.59375 C -6.039062 -14.90625 -5.332031 -15.046875 -4.5625 -15.015625 C -3.613281 -14.984375 -2.757812 -14.71875 -2 -14.21875 C -1.238281 -13.726562 -0.648438 -13.023438 -0.234375 -12.109375 C 0.179688 -11.191406 0.367188 -10.082031 0.328125 -8.78125 Z M -10.390625 -4.609375 L -10.234375 -8.796875 C -10.191406 -9.984375 -10.429688 -10.90625 -10.953125 -11.5625 C -11.484375 -12.226562 -12.25 -12.582031 -13.25 -12.625 C -14.195312 -12.65625 -14.96875 -12.363281 -15.5625 -11.75 C -16.164062 -11.144531 -16.488281 -10.207031 -16.53125 -8.9375 L -16.6875 -4.84375 Z M -1.71875 -4.28125 L -1.5625 -8.59375 C -1.507812 -9.875 -1.769531 -10.875 -2.34375 -11.59375 C -2.914062 -12.3125 -3.734375 -12.6875 -4.796875 -12.71875 C -5.847656 -12.757812 -6.703125 -12.429688 -7.359375 -11.734375 C -8.023438 -11.035156 -8.382812 -10.0625 -8.4375 -8.8125 L -8.59375 -4.546875 Z M -1.71875 -4.28125 "/></g></g></g><g fill="#145854" fill-opacity="1"><g transform="translate(87.462622, 171.051749)"><g><path d="M 3.296875 -9.953125 C 2.773438 -8.191406 1.925781 -6.765625 0.75 -5.671875 C -0.414062 -4.578125 -1.8125 -3.867188 -3.4375 -3.546875 C -5.0625 -3.222656 -6.785156 -3.332031 -8.609375 -3.875 C -10.441406 -4.414062 -11.941406 -5.265625 -13.109375 -6.421875 C -14.285156 -7.578125 -15.066406 -8.929688 -15.453125 -10.484375 C -15.847656 -12.046875 -15.785156 -13.707031 -15.265625 -15.46875 C -14.734375 -17.25 -13.875 -18.6875 -12.6875 -19.78125 C -11.507812 -20.875 -10.113281 -21.582031 -8.5 -21.90625 C -6.894531 -22.226562 -5.175781 -22.117188 -3.34375 -21.578125 C -1.519531 -21.035156 -0.015625 -20.1875 1.171875 -19.03125 C 2.359375 -17.875 3.140625 -16.515625 3.515625 -14.953125 C 3.898438 -13.398438 3.828125 -11.734375 3.296875 -9.953125 Z M 1.390625 -10.515625 C 1.785156 -11.835938 1.835938 -13.082031 1.546875 -14.25 C 1.253906 -15.425781 0.640625 -16.457031 -0.296875 -17.34375 C -1.234375 -18.238281 -2.46875 -18.914062 -4 -19.375 C -5.539062 -19.832031 -6.941406 -19.941406 -8.203125 -19.703125 C -9.460938 -19.460938 -10.535156 -18.929688 -11.421875 -18.109375 C -12.316406 -17.296875 -12.960938 -16.226562 -13.359375 -14.90625 C -13.742188 -13.59375 -13.785156 -12.347656 -13.484375 -11.171875 C -13.191406 -9.992188 -12.582031 -8.96875 -11.65625 -8.09375 C -10.726562 -7.21875 -9.492188 -6.550781 -7.953125 -6.09375 C -6.421875 -5.632812 -5.019531 -5.515625 -3.75 -5.734375 C -2.476562 -5.960938 -1.398438 -6.488281 -0.515625 -7.3125 C 0.367188 -8.132812 1.003906 -9.203125 1.390625 -10.515625 Z M 1.390625 -10.515625 "/></g></g></g><g fill="#145854" fill-opacity="1"><g transform="translate(96.513334, 144.167851)"><g><path d="M 5.875 -8.703125 C 4.894531 -7.148438 3.691406 -6.003906 2.265625 -5.265625 C 0.835938 -4.523438 -0.695312 -4.21875 -2.34375 -4.34375 C -4 -4.46875 -5.632812 -5.039062 -7.25 -6.0625 C -8.851562 -7.070312 -10.0625 -8.289062 -10.875 -9.71875 C -11.695312 -11.15625 -12.085938 -12.675781 -12.046875 -14.28125 C -12.003906 -15.894531 -11.492188 -17.476562 -10.515625 -19.03125 C -9.523438 -20.59375 -8.3125 -21.738281 -6.875 -22.46875 C -5.4375 -23.207031 -3.898438 -23.507812 -2.265625 -23.375 C -0.628906 -23.25 0.988281 -22.679688 2.59375 -21.671875 C 4.207031 -20.648438 5.429688 -19.425781 6.265625 -18 C 7.097656 -16.570312 7.488281 -15.054688 7.4375 -13.453125 C 7.382812 -11.847656 6.863281 -10.265625 5.875 -8.703125 Z M 4.1875 -9.765625 C 4.914062 -10.921875 5.300781 -12.097656 5.34375 -13.296875 C 5.382812 -14.503906 5.070312 -15.660156 4.40625 -16.765625 C 3.75 -17.878906 2.738281 -18.867188 1.375 -19.734375 C 0.0195312 -20.585938 -1.289062 -21.066406 -2.5625 -21.171875 C -3.84375 -21.285156 -5.023438 -21.066406 -6.109375 -20.515625 C -7.191406 -19.972656 -8.097656 -19.125 -8.828125 -17.96875 C -9.554688 -16.800781 -9.9375 -15.609375 -9.96875 -14.390625 C -10 -13.179688 -9.6875 -12.03125 -9.03125 -10.9375 C -8.375 -9.84375 -7.367188 -8.867188 -6.015625 -8.015625 C -4.648438 -7.148438 -3.328125 -6.65625 -2.046875 -6.53125 C -0.765625 -6.40625 0.410156 -6.617188 1.484375 -7.171875 C 2.554688 -7.734375 3.457031 -8.597656 4.1875 -9.765625 Z M 4.1875 -9.765625 "/></g></g></g><g fill="#145854" fill-opacity="1"><g transform="translate(112.785491, 120.762543)"><g><path d="M 1.4375 -1.359375 L -11.4375 -14.9375 L -9.8125 -16.484375 L -3.984375 -10.34375 L -4.140625 -21.859375 L -2.078125 -23.8125 L -2 -13.625 L 10.875 -10.3125 L 8.890625 -8.421875 L -1.96875 -11.25 L -1.953125 -8.203125 L 3.0625 -2.90625 Z M 1.4375 -1.359375 "/></g></g></g><g fill="#145854" fill-opacity="1"><g transform="translate(130.661671, 105.394794)"><g/></g></g><g fill="#145854" fill-opacity="1"><g transform="translate(143.415193, 97.417987)"><g><path d="M 9.625 -3.34375 C 7.914062 -2.6875 6.289062 -2.5 4.75 -2.78125 C 3.21875 -3.0625 1.847656 -3.75 0.640625 -4.84375 C -0.554688 -5.9375 -1.5 -7.382812 -2.1875 -9.1875 C -2.875 -10.96875 -3.140625 -12.664062 -2.984375 -14.28125 C -2.828125 -15.894531 -2.273438 -17.320312 -1.328125 -18.5625 C -0.378906 -19.8125 0.945312 -20.765625 2.65625 -21.421875 C 4.664062 -22.203125 6.476562 -22.351562 8.09375 -21.875 C 9.707031 -21.40625 11.023438 -20.378906 12.046875 -18.796875 L 9.734375 -17.90625 C 9.046875 -18.882812 8.160156 -19.539062 7.078125 -19.875 C 6.003906 -20.21875 4.765625 -20.117188 3.359375 -19.578125 C 2.117188 -19.097656 1.144531 -18.390625 0.4375 -17.453125 C -0.269531 -16.523438 -0.671875 -15.425781 -0.765625 -14.15625 C -0.859375 -12.894531 -0.613281 -11.515625 -0.03125 -10.015625 C 0.539062 -8.515625 1.285156 -7.320312 2.203125 -6.4375 C 3.117188 -5.5625 4.15625 -5.015625 5.3125 -4.796875 C 6.46875 -4.585938 7.664062 -4.722656 8.90625 -5.203125 C 10.3125 -5.742188 11.300781 -6.492188 11.875 -7.453125 C 12.445312 -8.410156 12.664062 -9.476562 12.53125 -10.65625 L 14.84375 -11.546875 C 15.132812 -9.722656 14.835938 -8.09375 13.953125 -6.65625 C 13.078125 -5.226562 11.632812 -4.125 9.625 -3.34375 Z M 9.625 -3.34375 "/></g></g></g><g fill="#145854" fill-opacity="1"><g transform="translate(168.779936, 88.763077)"><g><path d="M 0.796875 -0.09375 L 5.484375 -19.484375 L 7.84375 -19.765625 L 16.84375 -1.96875 L 14.484375 -1.6875 L 12.203125 -6.265625 L 4.296875 -5.34375 L 3.140625 -0.359375 Z M 4.765625 -7.234375 L 11.359375 -8.015625 L 6.96875 -16.8125 Z M 4.765625 -7.234375 "/></g></g></g><g fill="#145854" fill-opacity="1"><g transform="translate(193.918305, 86.508035)"><g><path d="M 1.96875 0.296875 L 4.78125 -18.203125 L 7.359375 -17.8125 L 12.0625 -3.90625 L 20.640625 -15.796875 L 23.25 -15.40625 L 20.4375 3.09375 L 18.234375 2.765625 L 20.4375 -11.78125 L 12.4375 -0.8125 L 10.765625 -1.0625 L 6.375 -13.875 L 4.171875 0.640625 Z M 1.96875 0.296875 "/></g></g></g><g fill="#145854" fill-opacity="1"><g transform="translate(223.465207, 92.443343)"><g><path d="M 1.828125 0.78125 L 9.21875 -16.421875 L 19.859375 -11.859375 L 19.125 -10.15625 L 10.53125 -13.84375 L 7.96875 -7.859375 L 15.828125 -4.484375 L 15.09375 -2.8125 L 7.234375 -6.1875 L 4.609375 -0.03125 L 13.203125 3.65625 L 12.46875 5.34375 Z M 1.828125 0.78125 "/></g></g></g></svg>